<svg width="23" height="23" viewBox="0 0 23 23" fill="none" xmlns="http://www.w3.org/2000/svg">
<path d="M19.1666 9.58317C19.1666 15.3332 11.5 21.0832 11.5 21.0832C11.5 21.0832 3.83331 15.3332 3.83331 9.58317C3.83331 7.54984 4.64105 5.5998 6.07883 4.16202C7.51661 2.72424 9.46665 1.9165 11.5 1.9165C13.5333 1.9165 15.4834 2.72424 16.9211 4.16202C18.3589 5.5998 19.1666 7.54984 19.1666 9.58317Z" stroke="#98A2B2" stroke-width="1.91667" stroke-linecap="round" stroke-linejoin="round"/>
<path d="M11.5 12.4585C13.0878 12.4585 14.375 11.1713 14.375 9.5835C14.375 7.99568 13.0878 6.7085 11.5 6.7085C9.91218 6.7085 8.625 7.99568 8.625 9.5835C8.625 11.1713 9.91218 12.4585 11.5 12.4585Z" stroke="#98A2B2" stroke-width="1.91667" stroke-linecap="round" stroke-linejoin="round"/>
</svg>
